<?xml version="1.0" encoding="UTF-8"?>
<svg version="1.1" xmlns="http://www.w3.org/2000/svg" width="1024" height="1024">
<path d="M0 0 C22.35863649 -0.02344086 44.71727093 -0.04103384 67.07591724 -0.05181217 C77.45922572 -0.05695148 87.84252653 -0.06394871 98.22583008 -0.07543945 C107.28408158 -0.08545898 116.34232751 -0.0918706 125.4005844 -0.09408849 C130.18940939 -0.09538334 134.97821849 -0.09839053 139.76703835 -0.10573006 C144.29039901 -0.11260542 148.8137375 -0.11459399 153.33710289 -0.11310768 C154.98199459 -0.11337891 156.62688717 -0.11531481 158.27177429 -0.11920547 C166.93889543 -0.13867009 175.58061825 0.00060971 184.23857117 0.42115784 C185.02200419 0.45681128 185.80543722 0.49246473 186.61261064 0.52919859 C191.98358918 0.81959932 196.95359272 1.69215842 202.1328125 3.19140625 C205.29556149 4.08335317 208.46052042 4.69417852 211.6875 5.3125 C229.20315109 9.04375901 244.60749863 16.34612802 259 27 C259.79019531 27.56203125 260.58039063 28.1240625 261.39453125 28.703125 C262.13058594 29.23421875 262.86664063 29.7653125 263.625 30.3125 C264.27726562 30.78300781 264.92953125 31.25351562 265.6015625 31.73828125 C266.29378906 32.36283203 266.29378906 32.36283203 267 33 C267 33.66 267 34.32 267 35 C267.639375 35.268125 268.27875 35.53625 268.9375 35.8125 C271 37 271 37 272 40 C272.66 40.33 273.32 40.66 274 41 C274.66 41.33 275.32 41.66 276 42 C276.33 42.99 276.66 43.98 277 45 C277.66 45 278.32 45 279 45 C282 49.38461538 282 49.38461538 282 52 C282.66 52 283.32 52 284 52 C284 52.99 284 53.98 284 55 C284.66 55 285.32 55 286 55 C299.67521368 79.7977208 299.67521368 79.7977208 299 87 C299.66 87 300.32 87 301 87 C301.31919939 88.31088682 301.62985947 89.62385248 301.9375 90.9375 C302.11152344 91.66839844 302.28554688 92.39929688 302.46484375 93.15234375 C304.13224436 102.02486234 304.18304112 110.81001713 304.1875 119.8125 C304.19974609 121.10220703 304.21199219 122.39191406 304.22460938 123.72070312 C304.23671577 131.69881851 303.59737231 139.18590787 302 147 C301.76539063 148.23234375 301.53078125 149.4646875 301.2890625 150.734375 C300.06418877 156.29674278 298.72317712 161.2642458 295.95703125 166.2578125 C294.84279819 168.20481766 294.84279819 168.20481766 293.6875 171.25 C291.37455594 176.79089895 288.06020209 181.85075585 285 187 C284.22538718 188.35200827 283.45374331 189.70573083 282.6875 191.0625 C281.52697141 193.08267939 280.29233853 195.0614922 279 197 C278.34 197 277.68 197 277 197 C276.59974609 197.87591797 276.59974609 197.87591797 276.19140625 198.76953125 C272.3153496 206.02601764 265.11818662 212.61699263 259 218 C258.34 218 257.68 218 257 218 C257 218.66 257 219.32 257 220 C244.41291357 230.88036284 219.24928803 249 202 249 C202.639375 250.093125 203.27875 251.18625 203.9375 252.3125 C205.26601325 254.5838291 206.15813297 256.47439892 207 259 C207.66 259 208.32 259 209 259 C209.94629044 260.34472853 210.88031602 261.69932537 211.76025391 263.08837891 C213.16673873 265.25710206 214.67087094 267.33337186 216.19921875 269.41796875 C217.05290039 270.58682617 217.05290039 270.58682617 217.92382812 271.77929688 C219.1092876 273.39798075 220.2968225 275.01514652 221.48632812 276.63085938 C222.05158203 277.40623047 222.61683594 278.18160156 223.19921875 278.98046875 C223.71315186 279.68067139 224.22708496 280.38087402 224.7565918 281.10229492 C226 283 226 283 227 286 C227.66 286 228.32 286 229 286 C232 290.38461538 232 290.38461538 232 293 C232.66 293 233.32 293 234 293 C237 297.38461538 237 297.38461538 237 300 C237.66 300 238.32 300 239 300 C239 300.99 239 301.98 239 303 C239.66 303 240.32 303 241 303 C241.33 304.32 241.66 305.64 242 307 C242.66 307 243.32 307 244 307 C245.9453125 309.30078125 245.9453125 309.30078125 248.125 312.3125 C248.84945313 313.29863281 249.57390625 314.28476562 250.3203125 315.30078125 C252 318 252 318 252 321 C252.639375 321.2475 253.27875 321.495 253.9375 321.75 C256 323 256 323 256.75 325.125 C256.8325 325.74375 256.915 326.3625 257 327 C257.66 327 258.32 327 259 327 C262 331.38461538 262 331.38461538 262 334 C262.66 334 263.32 334 264 334 C264 334.99 264 335.98 264 337 C264.66 337 265.32 337 266 337 C266.33 338.32 266.66 339.64 267 341 C267.66 341 268.32 341 269 341 C269 341.99 269 342.98 269 344 C269.66 344 270.32 344 271 344 C271.33 345.32 271.66 346.64 272 348 C272.66 348 273.32 348 274 348 C276.29648649 350.5614657 277 351.47967572 277 355 C277.66 355 278.32 355 279 355 C279 355.66 279 356.32 279 357 C279.66 357 280.32 357 281 357 C282.44526736 358.73548169 283.8087222 360.53975963 285.125 362.375 C285.84945313 363.37273437 286.57390625 364.37046875 287.3203125 365.3984375 C289 368 289 368 289 370 C289.66 370 290.32 370 291 370 C291.33 371.32 291.66 372.64 292 374 C292.66 374 293.32 374 294 374 C294 374.66 294 375.32 294 376 C294.66 376 295.32 376 296 376 C296.33 377.32 296.66 378.64 297 380 C297.66 380 298.32 380 299 380 C299 380.66 299 381.32 299 382 C299.639375 382.268125 300.27875 382.53625 300.9375 382.8125 C303 384 303 384 304 387 C304.66 387 305.32 387 306 387 C306 387.66 306 388.32 306 389 C306.639375 389.268125 307.27875 389.53625 307.9375 389.8125 C310 391 310 391 311 394 C311.7425 394.28875 312.485 394.5775 313.25 394.875 C316.67304267 396.27533564 318.47148633 398.33840666 321 401 C321.99 401.66 322.98 402.32 324 403 C324 403.66 324 404.32 324 405 C324.66386719 405.24492188 325.32773437 405.48984375 326.01171875 405.7421875 C329.7438397 407.31309331 333.25449907 409.19789136 336.8125 411.125 C337.50537109 411.49753906 338.19824219 411.87007812 338.91210938 412.25390625 C340.60934836 413.16690377 342.30485138 414.08312716 344 415 C344 415.66 344 416.32 344 417 C344.70125 417.11859375 345.4025 417.2371875 346.125 417.359375 C349.23817479 418.05307156 352.02579014 419.09822265 355 420.25 C368.47494304 425.12421704 382.62244787 428.70658057 397 429 C397.33 430.32 397.66 431.64 398 433 C391.86330286 435.18424813 385.77851291 436.80455787 379.40625 438.15625 C376.73797104 438.81719983 374.27739162 439.58336012 371.6953125 440.49609375 C366.97658436 442.10579052 362.30339961 442.89080683 357.375 443.5625 C355.75720014 443.78863017 354.13999127 444.01903358 352.5234375 444.25390625 C351.82138184 444.35002197 351.11932617 444.4461377 350.39599609 444.54516602 C347.83184872 444.9823098 347.83184872 444.9823098 344.7668457 446.02783203 C340.46182224 447.13889584 336.62717303 447.30595067 332.20703125 447.30078125 C331.37975021 447.30506638 330.55246918 447.3093515 329.70011902 447.31376648 C327.95625722 447.31948305 326.21237159 447.32002986 324.46850586 447.31567383 C321.83730003 447.31252964 319.20723781 447.33595124 316.57617188 447.36132812 C307.23681303 447.39588005 298.99145794 446.76919852 290 444 C288.14875634 443.59071407 286.2947825 443.19344589 284.4375 442.8125 C271.96336415 439.6898573 259.70709266 434.07106631 249 427 C247.99710937 426.38769531 246.99421875 425.77539062 245.9609375 425.14453125 C240.07826785 421.53301887 240.07826785 421.53301887 238 420 C238 419.34 238 418.68 238 418 C237.34 418 236.68 418 236 418 C236 417.34 236 416.68 236 416 C235.278125 415.76925781 234.55625 415.53851562 233.8125 415.30078125 C230.46105548 413.75073816 228.55150388 411.84664545 226 409.1875 C225.175 408.33542969 224.35 407.48335937 223.5 406.60546875 C222.675 405.74566406 221.85 404.88585937 221 404 C219.6078125 402.66388672 219.6078125 402.66388672 218.1875 401.30078125 C216 399 216 399 216 397 C215.01 396.67 214.02 396.34 213 396 C211.8125 393.4375 211.8125 393.4375 211 391 C210.34 391 209.68 391 209 391 C204.26923077 385.80769231 204.26923077 385.80769231 203 382 C202.319375 381.319375 201.63875 380.63875 200.9375 379.9375 C200.298125 379.298125 199.65875 378.65875 199 378 C199 377.34 199 376.68 199 376 C198.34 376 197.68 376 197 376 C194 371.61538462 194 371.61538462 194 369 C193.34 369 192.68 369 192 369 C191.67 367.35 191.34 365.7 191 364 C190.34 364 189.68 364 189 364 C186 359.61538462 186 359.61538462 186 357 C185.34 357 184.68 357 184 357 C181.56839395 353.63316085 181 352.26649636 181 348 C180.01 347.67 179.02 347.34 178 347 C176.83203125 345.4765625 176.83203125 345.4765625 175.8125 343.625 C175.46832031 343.01914062 175.12414062 342.41328125 174.76953125 341.7890625 C174 340 174 340 174 337 C173.34 337 172.68 337 172 337 C171.75765625 336.49210937 171.5153125 335.98421875 171.265625 335.4609375 C169.60439812 332.04903306 167.94015089 328.79282109 165.75 325.6875 C164 323 164 323 164 320 C163.34 320 162.68 320 162 320 C161.67 318.35 161.34 316.7 161 315 C160.34 315 159.68 315 159 315 C158.15885829 313.56705502 157.32734313 312.12845595 156.5 310.6875 C156.0359375 309.88699219 155.571875 309.08648438 155.09375 308.26171875 C154 306 154 306 154 303 C153.34 303 152.68 303 152 303 C151.484375 301.906875 150.96875 300.81375 150.4375 299.6875 C148.11195236 294.99442732 145.28177017 290.68132559 142.390625 286.3203125 C141 284 141 284 141 282 C140.34 282 139.68 282 139 282 C139 281.01 139 280.02 139 279 C138.34 279 137.68 279 137 279 C134 274.61538462 134 274.61538462 134 272 C133.34 272 132.68 272 132 272 C132 271.01 132 270.02 132 269 C131.34 269 130.68 269 130 269 C129.67 267.68 129.34 266.36 129 265 C128.34 265 127.68 265 127 265 C126.33109741 264.28009888 126.33109741 264.28009888 125.64868164 263.5456543 C123.58756481 261.61333819 122.40604835 261.5165436 119.62109375 261.26953125 C118.78255859 261.18896484 117.94402344 261.10839844 117.08007812 261.02539062 C115.77200195 260.92000977 115.77200195 260.92000977 114.4375 260.8125 C113.12362305 260.6897168 113.12362305 260.6897168 111.78320312 260.56445312 C107.39831529 260.14798458 107.39831529 260.14798458 103 260 C102.93941406 260.92683594 102.87882812 261.85367187 102.81640625 262.80859375 C102.69072266 264.60490234 102.69072266 264.60490234 102.5625 266.4375 C102.44068359 268.22994141 102.44068359 268.22994141 102.31640625 270.05859375 C102 273 102 273 101 274 C100.855625 275.051875 100.71125 276.10375 100.5625 277.1875 C100.0384249 280.73956454 99.15057782 283.61218754 98 287 C97.20057879 290.1566889 96.43571833 293.32000519 95.68359375 296.48828125 C95 299 95 299 94 300 C93.65034118 301.88933295 93.3453517 303.78701712 93.0625 305.6875 C92.38373074 309.96936023 91.5782285 313.94169814 90 318 C89.34 318 88.68 318 88 318 C88.061875 318.9075 88.12375 319.815 88.1875 320.75 C88.22204204 326.33429576 86.47354309 331.65840632 85 337 C84.34 337 83.68 337 83 337 C83.04125 338.03125 83.0825 339.0625 83.125 340.125 C83.00214337 343.93355555 82.25912139 346.44483373 81 350 C80.62468554 352.32694964 80.28082798 354.65976685 80 357 C79.34 357 78.68 357 78 357 C77.96261719 357.79664063 77.92523438 358.59328125 77.88671875 359.4140625 C77.51079238 365.47311106 76.81624436 369.59281083 74 375 C73.39450796 378.02331299 72.94021721 381.04239265 72.52734375 384.09765625 C72 387 72 387 70 392 C42.94 392 15.88 392 -12 392 C-12 385.20099189 -11.76702449 384.42762496 -9 379 C-8.62478809 377.36320603 -8.29467771 375.71569192 -8 374.0625 C-7.21896443 369.69520945 -5.75042832 366.08433275 -4 362 C-3.63426339 360.31922515 -3.30281535 358.63074252 -3 356.9375 C-2.45002893 353.88516058 -1.92734471 351.85771672 -0.5 349.0625 C1.33980682 345.30622773 1.80497683 341.76839328 2.46875 337.6640625 C3.15837998 334.205771 4.5924976 331.22552634 6 328 C6.54117295 325.51697117 6.98432176 323.03826536 7.375 320.52734375 C8 318 8 318 9.42578125 315.24609375 C11.34705788 311.28435459 12.2547287 307.40776317 13.1875 303.125 C13.45336914 301.949375 13.45336914 301.949375 13.72460938 300.75 C14.15667789 298.83488549 14.57931354 296.91764692 15 295 C15.66 295 16.32 295 17 295 C16.938125 294.05125 16.87625 293.1025 16.8125 292.125 C16.78189459 287.15672169 18.42424457 282.6616098 20 278 C20.66 278 21.32 278 22 278 C22.04898438 277.28714844 22.09796875 276.57429688 22.1484375 275.83984375 C22.58128523 270.29491509 23.24028816 265.27913551 25 260 C25.66 260 26.32 260 27 260 C27.03738281 259.28714844 27.07476562 258.57429688 27.11328125 257.83984375 C27.17902344 256.88207031 27.24476563 255.92429687 27.3125 254.9375 C27.39951172 253.52791016 27.39951172 253.52791016 27.48828125 252.08984375 C28.09998345 248.39628313 29.51276475 245.43236313 31 242 C31.81053421 239.19259507 32.44202128 236.35471278 33.0625 233.5 C34.22552457 228.27806641 35.50321807 223.14001283 37 218 C37.35371498 216.33753959 37.69595322 214.67225729 38 213 C38.66 213 39.32 213 40 213 C39.95875 212.319375 39.9175 211.63875 39.875 210.9375 C39.99411597 208.13827479 40.52936086 205.83245729 41.37109375 203.171875 C41.86948672 201.45071668 42.28072276 199.70435649 42.66015625 197.953125 C42.89605469 196.87546875 43.13195312 195.7978125 43.375 194.6875 C43.58898437 193.66011719 43.80296875 192.63273438 44.0234375 191.57421875 C45 189 45 189 46.61964417 187.85231018 C49.8501456 186.69559688 52.63067116 186.7686926 56.06225586 186.78881836 C56.76728241 186.7901326 57.47230896 186.79144684 58.19869995 186.7928009 C60.53754979 186.7993026 62.87607425 186.8197866 65.21484375 186.83984375 C66.86600897 186.84612971 68.51717848 186.8513646 70.16835022 186.85560608 C74.5384911 186.86893131 78.90849319 186.89330711 83.27856445 186.92095947 C91.00726948 186.96903768 98.73602805 187.00333224 106.46484375 187.02734375 C107.30088449 187.03004713 108.13692524 187.03275051 108.99830055 187.03553581 C143.00156378 188.12135663 143.00156378 188.12135663 176 182 C176.98097656 181.73960937 177.96195313 181.47921875 178.97265625 181.2109375 C186.65712376 179.13195388 192.6325544 176.12205954 199.22265625 171.8046875 C202 170 202 170 204.3046875 168.88671875 C206.55943796 167.70739074 206.91511461 166.24209647 208 164 C208.99 163.67 209.98 163.34 211 163 C212.16953416 160.57616923 212.16953416 160.57616923 213 158 C213.33 157.34 213.66 156.68 214 156 C214.66 156 215.32 156 216 156 C216.12375 155.33742188 216.2475 154.67484375 216.375 153.9921875 C217.28312476 149.64454019 218.4181709 145.3553449 219.5390625 141.05859375 C222.80928031 128.24617322 221.35083094 117.83839373 216.8046875 105.4609375 C216 103 216 103 216 100 C215.34 100 214.68 100 214 100 C211.70351351 97.4385343 211 96.52032428 211 93 C210.401875 92.71125 209.80375 92.4225 209.1875 92.125 C207 91 207 91 204 89 C204 88.34 204 87.68 204 87 C203.484375 86.9175 202.96875 86.835 202.4375 86.75 C200 86 200 86 197.01953125 84.15234375 C192.36328354 81.45442163 187.42463075 80.17704304 182.25 78.8125 C181.32445312 78.55275391 180.39890625 78.29300781 179.4453125 78.02539062 C158.94567015 72.50076556 136.26430965 73.95104504 115.1640625 73.82421875 C113.39955548 73.81224966 111.63504945 73.80013347 109.87054443 73.78787231 C98.95171165 73.71400027 98.95171165 73.71400027 88.03271484 73.67407227 C83.51682969 73.66402312 79.00142481 73.63484223 74.48572922 73.59275246 C72.7801004 73.58046019 71.07440411 73.57531796 69.36873245 73.57755089 C67.00781933 73.57989091 64.64831994 73.55786255 62.28759766 73.5300293 C61.58960052 73.53663071 60.89160339 73.54323212 60.17245483 73.55003357 C57.04429915 73.48920204 55.39764973 73.36260242 53.04452515 71.21687317 C52 69 52 69 52 65 C51.34 65 50.68 65 50 65 C49.75765625 64.49210937 49.5153125 63.98421875 49.265625 63.4609375 C47.60439812 60.04903306 45.94015089 56.79282109 43.75 53.6875 C42 51 42 51 42 48 C41.34 48 40.68 48 40 48 C37 43.61538462 37 43.61538462 37 41 C36.34 41 35.68 41 35 41 C32 36.61538462 32 36.61538462 32 34 C31.34 34 30.68 34 30 34 C27 30.53846154 27 30.53846154 27 28 C26.34 28 25.68 28 25 28 C20 22.52380952 20 22.52380952 20 20 C19.01 19.67 18.02 19.34 17 19 C17 18.34 17 17.68 17 17 C16.360625 16.731875 15.72125 16.46375 15.0625 16.1875 C13 15 13 15 12 12 C10.23408113 10.99083967 10.23408113 10.99083967 8 10 C4.75 8.0625 4.75 8.0625 2 6 C2 5.01 2 4.02 2 3 C1.34 3 0.68 3 0 3 C0 2.01 0 1.02 0 0 Z " fill="#111111" transform="translate(208,289)"/>
<path d="M0 0 C1.22783203 -0.01224609 2.45566406 -0.02449219 3.72070312 -0.03710938 C10.22698649 -0.04762033 15.69969478 0.41086856 21.9375 2.1875 C24.28373764 2.53919052 26.63274646 2.80367362 28.98974609 3.07299805 C47.43434936 5.23811232 63.92484067 10.90302065 79.9375 20.1875 C81.36793423 20.88958291 82.80422509 21.58007657 84.25 22.25 C89.17380992 24.66908922 93.50464664 27.98320081 97.9375 31.1875 C98.66066406 31.67992187 99.38382813 32.17234375 100.12890625 32.6796875 C101.76739414 33.79849337 103.35855318 34.98612742 104.9375 36.1875 C104.9375 36.8475 104.9375 37.5075 104.9375 38.1875 C106.5875 38.8475 108.2375 39.5075 109.9375 40.1875 C109.9375 40.8475 109.9375 41.5075 109.9375 42.1875 C110.5975 42.1875 111.2575 42.1875 111.9375 42.1875 C111.9375 42.8475 111.9375 43.5075 111.9375 44.1875 C112.47375 44.39375 113.01 44.6 113.5625 44.8125 C116.85728009 46.72000426 119.53113628 49.23569384 121.9375 52.1875 C121.9375 52.8475 121.9375 53.5075 121.9375 54.1875 C122.9275 54.5175 123.9175 54.8475 124.9375 55.1875 C124.9375 55.8475 124.9375 56.5075 124.9375 57.1875 C125.5975 57.1875 126.2575 57.1875 126.9375 57.1875 C131.9375 62.66369048 131.9375 62.66369048 131.9375 65.1875 C132.5975 65.1875 133.2575 65.1875 133.9375 65.1875 C136.9375 68.64903846 136.9375 68.64903846 136.9375 71.1875 C137.5975 71.1875 138.2575 71.1875 138.9375 71.1875 C139.2675 73.1675 139.5975 75.1475 139.9375 77.1875 C132.33757438 82.78242012 124.35822261 87.65386639 116.29296875 92.5390625 C111.98583389 95.14916579 107.72813158 97.83056184 103.4921875 100.5546875 C100.71559908 102.32932658 97.91989714 104.07150354 95.12304688 105.81396484 C92.86854947 107.23083285 90.63142937 108.67272244 88.39453125 110.1171875 C86.84667124 111.09945816 85.298492 112.08122594 83.75 113.0625 C82.57920898 113.82820313 82.57920898 113.82820313 81.38476562 114.609375 C75.61990512 118.22769288 75.61990512 118.22769288 71.88671875 118.0078125 C71.24347656 117.73710937 70.60023438 117.46640625 69.9375 117.1875 C69.6075 116.1975 69.2775 115.2075 68.9375 114.1875 C67.60983982 113.50960571 66.27564643 112.84445232 64.9375 112.1875 C63.15625 110.34765625 63.15625 110.34765625 61.4375 108.25 C59.61753563 106.03708877 58.03432416 104.25858393 55.71875 102.55859375 C55.1309375 102.10613281 54.543125 101.65367187 53.9375 101.1875 C53.9375 100.5275 53.9375 99.8675 53.9375 99.1875 C53.215625 98.92839844 52.49375 98.66929687 51.75 98.40234375 C48.82007839 97.13678039 46.51579296 95.62329098 43.9375 93.75 C25.69620413 80.55356252 1.95021519 76.56710486 -20.140625 79.95947266 C-45.31605691 84.4382712 -69.22304558 99.07101244 -86.0625 118.1875 C-86.3925 118.8475 -86.7225 119.5075 -87.0625 120.1875 C-87.7225 120.1875 -88.3825 120.1875 -89.0625 120.1875 C-89.371875 120.80625 -89.68125 121.425 -90 122.0625 C-90.6875 123.4375 -91.375 124.8125 -92.0625 126.1875 C-92.7225 126.1875 -93.3825 126.1875 -94.0625 126.1875 C-94.371875 126.80625 -94.68125 127.425 -95 128.0625 C-95.6875 129.4375 -96.375 130.8125 -97.0625 132.1875 C-97.7225 132.1875 -98.3825 132.1875 -99.0625 132.1875 C-99.145 132.703125 -99.2275 133.21875 -99.3125 133.75 C-100.38390225 137.23205732 -102.19773605 140.05950885 -104.0625 143.1875 C-104.7225 143.1875 -105.3825 143.1875 -106.0625 143.1875 C-106.18625 143.93 -106.31 144.6725 -106.4375 145.4375 C-107.01736701 147.98891485 -107.79958739 149.9142573 -109.0625 152.1875 C-109.7225 152.1875 -110.3825 152.1875 -111.0625 152.1875 C-111.165625 153.26 -111.26875 154.3325 -111.375 155.4375 C-112.0625 159.1875 -112.0625 159.1875 -113.46875 161 C-115.52908276 163.82790771 -116.27803079 166.58588203 -117.25 169.9375 C-117.76626953 171.69320312 -117.76626953 171.69320312 -118.29296875 173.484375 C-118.54691406 174.37640625 -118.80085937 175.2684375 -119.0625 176.1875 C-119.7225 176.1875 -120.3825 176.1875 -121.0625 176.1875 C-121.12308594 176.89777344 -121.18367187 177.60804688 -121.24609375 178.33984375 C-121.37177734 179.71849609 -121.37177734 179.71849609 -121.5 181.125 C-121.58121094 182.04152344 -121.66242188 182.95804688 -121.74609375 183.90234375 C-122.0625 186.1875 -122.0625 186.1875 -123.0625 187.1875 C-123.29325082 188.53497084 -123.47403063 189.89127565 -123.625 191.25 C-123.769375 192.549375 -123.91375 193.84875 -124.0625 195.1875 C-124.7225 195.1875 -125.3825 195.1875 -126.0625 195.1875 C-126.05089844 195.92613281 -126.03929687 196.66476562 -126.02734375 197.42578125 C-125.96559254 204.36838119 -126.01707042 211.3083152 -127.0625 218.1875 C-127.3925 218.5175 -127.7225 218.8475 -128.0625 219.1875 C-128.16247642 221.67808914 -128.20129627 224.13477395 -128.1875 226.625 C-128.19136719 227.31916016 -128.19523438 228.01332031 -128.19921875 228.72851562 C-128.25609835 232.58519757 -128.25609835 232.58519757 -127.0625 236.1875 C-126.65388353 239.85018944 -126.29682581 243.51130849 -125.98828125 247.18359375 C-125.45178883 252.66672811 -124.11606865 257.07809047 -122.0625 262.1875 C-121.58524393 264.52815409 -121.31040622 266.8076003 -121.0625 269.1875 C-120.4025 269.1875 -119.7425 269.1875 -119.0625 269.1875 C-118.67578125 269.92355469 -118.2890625 270.65960937 -117.890625 271.41796875 C-115.25095505 276.36408299 -112.67784162 280.87690038 -109.0625 285.1875 C-109.0625 285.8475 -109.0625 286.5075 -109.0625 287.1875 C-108.4025 287.1875 -107.7425 287.1875 -107.0625 287.1875 C-106.69125 287.868125 -106.32 288.54875 -105.9375 289.25 C-103.71750434 292.72799319 -101.09252878 294.86905966 -97.90234375 297.44140625 C-95.99220558 299.25421254 -95.1902812 300.84251001 -94.0625 303.1875 C-92.42017228 303.91205635 -90.74625165 304.56524395 -89.0625 305.1875 C-87.90483252 305.919101 -86.76033273 306.67169741 -85.625 307.4375 C-66.61704463 319.48179322 -43.4974134 323.46408738 -21.46386719 319.15429688 C-8.76346249 316.22861329 5.32433643 311.86894092 15.9375 304.1875 C16.700625 303.754375 17.46375 303.32125 18.25 302.875 C21.62099039 300.75833162 24.65677285 298.30455048 27.75390625 295.80859375 C29.9375 294.1875 29.9375 294.1875 32.15625 293.0859375 C34.53054921 291.8883743 34.78632523 290.55756569 35.9375 288.1875 C40.27083333 283.40972222 40.27083333 283.40972222 43.9375 282.1875 C44.67073796 280.17241642 44.67073796 280.17241642 44.9375 278.1875 C45.5975 278.1875 46.2575 278.1875 46.9375 278.1875 C46.9375 277.5275 46.9375 276.8675 46.9375 276.1875 C47.5975 276.1875 48.2575 276.1875 48.9375 276.1875 C49.02 275.56875 49.1025 274.95 49.1875 274.3125 C49.9375 272.1875 49.9375 272.1875 51.5625 270.875 C55.46012702 269.74673955 59.32449455 270.38099728 62.9375 272.1875 C62.9375 273.1775 62.9375 274.1675 62.9375 275.1875 C63.494375 275.249375 64.05125 275.31125 64.625 275.375 C67.90091967 276.5259988 69.51324603 278.70814935 71.9375 281.1875 C74.04870574 282.79154458 76.19178568 284.3342177 78.36328125 285.85546875 C78.88277344 286.29503906 79.40226562 286.73460937 79.9375 287.1875 C79.9375 287.8475 79.9375 288.5075 79.9375 289.1875 C80.9275 289.5175 81.9175 289.8475 82.9375 290.1875 C82.9375 290.8475 82.9375 291.5075 82.9375 292.1875 C84.113125 292.55875 84.113125 292.55875 85.3125 292.9375 C88.40243987 294.40889994 88.47409227 295.26068455 89.9375 298.1875 C92.39454762 299.42040201 92.39454762 299.42040201 94.9375 300.1875 C95.5975 300.5175 96.2575 300.8475 96.9375 301.1875 C96.9375 301.8475 96.9375 302.5075 96.9375 303.1875 C97.700625 303.47625 98.46375 303.765 99.25 304.0625 C101.9375 305.1875 101.9375 305.1875 104.9375 307.1875 C104.9375 307.8475 104.9375 308.5075 104.9375 309.1875 C105.535625 309.47625 106.13375 309.765 106.75 310.0625 C108.9375 311.1875 108.9375 311.1875 111.9375 313.1875 C112.125 316.3125 112.125 316.3125 111.9375 319.1875 C111.2775 319.1875 110.6175 319.1875 109.9375 319.1875 C109.69644531 319.75597656 109.45539063 320.32445312 109.20703125 320.91015625 C107.68781912 323.63538908 105.86331019 325.45440339 103.625 327.625 C102.81417969 328.41777344 102.00335937 329.21054687 101.16796875 330.02734375 C100.43191406 330.74019531 99.69585938 331.45304687 98.9375 332.1875 C98.1125 333.0125 97.2875 333.8375 96.4375 334.6875 C95.6125 335.5125 94.7875 336.3375 93.9375 337.1875 C93.23625 337.92355469 92.535 338.65960937 91.8125 339.41796875 C91.02875 340.22878906 90.245 341.03960938 89.4375 341.875 C88.7053125 342.64199219 87.973125 343.40898438 87.21875 344.19921875 C84.86384352 346.25169717 82.88510751 347.21707288 79.9375 348.1875 C79.9375 348.8475 79.9375 349.5075 79.9375 350.1875 C79.2775 350.1875 78.6175 350.1875 77.9375 350.1875 C77.9375 350.8475 77.9375 351.5075 77.9375 352.1875 C76.56396484 353.36083984 76.56396484 353.36083984 74.6484375 354.6484375 C73.95363281 355.12023437 73.25882813 355.59203125 72.54296875 356.078125 C71.80691406 356.56796875 71.07085938 357.0578125 70.3125 357.5625 C69.59964844 358.04460937 68.88679688 358.52671875 68.15234375 359.0234375 C66.08563864 360.41893747 64.01212804 361.80381731 61.9375 363.1875 C60.86242187 363.91324219 59.78734375 364.63898438 58.6796875 365.38671875 C49.04715902 371.71235355 38.54341109 376.63543228 27.89453125 380.9765625 C25.75366694 381.85327047 23.62905849 382.77002533 21.515625 383.7109375 C15.51093685 386.18885466 9.22860106 387.63103736 2.9375 389.1875 C1.83277344 389.46851563 0.72804688 389.74953125 -0.41015625 390.0390625 C-8.60797039 391.97370755 -16.74460669 392.86016292 -25.13134766 393.54150391 C-26.00065918 393.61288574 -26.8699707 393.68426758 -27.765625 393.7578125 C-28.54583008 393.81727051 -29.32603516 393.87672852 -30.12988281 393.93798828 C-32.14162167 394.08997443 -32.14162167 394.08997443 -34.0625 395.1875 C-35.63312514 395.28322577 -37.2077118 395.3182405 -38.78125 395.3203125 C-39.71324219 395.32160156 -40.64523437 395.32289063 -41.60546875 395.32421875 C-43.06919922 395.31841797 -43.06919922 395.31841797 -44.5625 395.3125 C-46.02623047 395.31830078 -46.02623047 395.31830078 -47.51953125 395.32421875 C-48.91751953 395.32228516 -48.91751953 395.32228516 -50.34375 395.3203125 C-51.62862305 395.31862061 -51.62862305 395.31862061 -52.93945312 395.31689453 C-55.0625 395.1875 -55.0625 395.1875 -57.0625 394.1875 C-58.64796262 394.00195748 -60.23946059 393.86660794 -61.83203125 393.7578125 C-62.7967334 393.6865918 -63.76143555 393.61537109 -64.75537109 393.54199219 C-65.78484863 393.46625977 -66.81432617 393.39052734 -67.875 393.3125 C-90.89364204 391.426363 -113.10076458 383.86881184 -133.0625 372.1875 C-134.74804526 371.24649007 -136.43552383 370.30893403 -138.125 369.375 C-139.4375 368.64583333 -140.75 367.91666667 -142.0625 367.1875 C-142.0625 366.5275 -142.0625 365.8675 -142.0625 365.1875 C-143.13564453 364.81625 -143.13564453 364.81625 -144.23046875 364.4375 C-147.37659706 363.04886405 -149.70060963 361.34286054 -152.375 359.1875 C-153.25800781 358.48625 -154.14101563 357.785 -155.05078125 357.0625 C-155.71464844 356.44375 -156.37851562 355.825 -157.0625 355.1875 C-157.0625 354.5275 -157.0625 353.8675 -157.0625 353.1875 C-157.743125 353.0225 -158.42375 352.8575 -159.125 352.6875 C-162.74329863 350.83985815 -164.6132168 348.54308861 -167.18359375 345.4453125 C-169.03287596 343.22309811 -170.97124626 341.11870681 -172.9375 339 C-183.10735388 327.5687689 -191.04362401 314.19928848 -197.0625 300.1875 C-197.47371094 299.27484375 -197.88492187 298.3621875 -198.30859375 297.421875 C-203.7062647 285.11316742 -207.00795506 272.50581275 -209.375 259.3125 C-209.54652588 258.3743042 -209.71805176 257.4361084 -209.89477539 256.46948242 C-212.72898664 239.68722997 -212.72898664 239.68722997 -209.0625 234.1875 C-208.4025 234.1875 -207.7425 234.1875 -207.0625 234.1875 C-206.794375 233.60484375 -206.52625 233.0221875 -206.25 232.421875 C-205.04769009 230.15963399 -203.72424087 228.38173682 -202.0625 226.4375 C-201.546875 225.82390625 -201.03125 225.2103125 -200.5 224.578125 C-199.0625 223.1875 -199.0625 223.1875 -197.0625 223.1875 C-196.794375 222.548125 -196.52625 221.90875 -196.25 221.25 C-195.0625 219.1875 -195.0625 219.1875 -192.0625 218.1875 C-190.89583333 216.27083333 -190.89583333 216.27083333 -190.0625 214.1875 C-189.7325 213.5275 -189.4025 212.8675 -189.0625 212.1875 C-188.4025 212.1875 -187.7425 212.1875 -187.0625 212.1875 C-186.753125 211.56875 -186.44375 210.95 -186.125 210.3125 C-185.4375 208.9375 -184.75 207.5625 -184.0625 206.1875 C-183.4025 206.1875 -182.7425 206.1875 -182.0625 206.1875 C-181.959375 205.61128906 -181.85625 205.03507813 -181.75 204.44140625 C-180.94955041 201.81720503 -179.77325441 200.25933062 -178.0625 198.125 C-176.1194079 195.69146398 -175.0612139 194.18364169 -174.0625 191.1875 C-173.4025 191.1875 -172.7425 191.1875 -172.0625 191.1875 C-171.95164062 190.46691406 -171.84078125 189.74632812 -171.7265625 189.00390625 C-171.0175896 185.99702707 -169.92567917 183.82680121 -168.4375 181.125 C-165.68891281 175.72717215 -163.43499768 170.25814506 -161.375 164.5625 C-161.08995605 163.80702881 -160.80491211 163.05155762 -160.51123047 162.27319336 C-155.02309168 146.67321497 -154.6233956 130.74534491 -154.78125 114.38891602 C-154.81275511 111.09835537 -154.82227357 107.80827568 -154.828125 104.51757812 C-154.83728535 102.39582754 -154.84765801 100.27408176 -154.859375 98.15234375 C-154.86362488 97.18344711 -154.86787476 96.21455048 -154.87225342 95.21629333 C-154.92539377 90.11529345 -155.2023503 85.16888773 -155.94244385 80.1186676 C-156.12456752 77.18911065 -155.21883822 74.84027591 -154.0625 72.1875 C-153.4025 72.1875 -152.7425 72.1875 -152.0625 72.1875 C-152.0625 71.5275 -152.0625 70.8675 -152.0625 70.1875 C-151.4025 70.1875 -150.7425 70.1875 -150.0625 70.1875 C-149.5675 68.7025 -149.5675 68.7025 -149.0625 67.1875 C-148.4025 67.1875 -147.7425 67.1875 -147.0625 67.1875 C-147.0625 66.5275 -147.0625 65.8675 -147.0625 65.1875 C-146.4025 65.1875 -145.7425 65.1875 -145.0625 65.1875 C-144.69125 64.32125 -144.69125 64.32125 -144.3125 63.4375 C-142.87950012 60.85810021 -141.27825324 59.12628408 -139.0625 57.1875 C-138.4025 57.1875 -137.7425 57.1875 -137.0625 57.1875 C-137.0625 56.5275 -137.0625 55.8675 -137.0625 55.1875 C-135.34680794 53.7442826 -133.56137717 52.3836315 -131.75 51.0625 C-131.21181641 50.66869141 -130.67363281 50.27488281 -130.11914062 49.86914062 C-128.99578671 49.04797549 -127.87058646 48.22933081 -126.74365234 47.41308594 C-125.13661048 46.24152768 -123.54635155 45.04705123 -121.95703125 43.8515625 C-121.00183594 43.13742187 -120.04664063 42.42328125 -119.0625 41.6875 C-118.19625 41.0378125 -117.33 40.388125 -116.4375 39.71875 C-114.22833802 38.29442188 -112.63037362 37.61547894 -110.0625 37.1875 C-110.0625 36.5275 -110.0625 35.8675 -110.0625 35.1875 C-89.30387931 20.1875 -89.30387931 20.1875 -80.0625 20.1875 C-80.0625 19.5275 -80.0625 18.8675 -80.0625 18.1875 C-66.55751236 12.49289688 -66.55751236 12.49289688 -60.0625 10.1875 C-58.46535156 9.5996875 -58.46535156 9.5996875 -56.8359375 9 C-47.3442668 5.64294594 -37.99213856 3.7475706 -28.0625 2.1875 C-27.26070312 2.01734375 -26.45890625 1.8471875 -25.6328125 1.671875 C-17.1101266 0.06577614 -8.64603147 0.00455294 0 0 Z " fill="#111111" transform="translate(688.0625,294.8125)"/>
<path d="M0 0 C1.50559539 1.96382007 2.89131683 3.78263366 4 6 C35.02 6 66.04 6 98 6 C98 6.66 98 7.32 98 8 C100.97 8 103.94 8 107 8 C107 8.33 107 8.66 107 9 C87.96457016 9.044055 68.92920278 8.98321255 49.89446831 8.81609344 C45.29217574 8.77613848 40.69009325 8.74412937 36.08764648 8.72900391 C31.56640101 8.71390367 27.04568007 8.67965034 22.52466774 8.63169098 C20.81625712 8.61688779 19.10777225 8.60895959 17.39929771 8.60811615 C15.03343709 8.60576313 12.66907084 8.57884879 10.3034668 8.54589844 C9.60389862 8.5509288 8.90433044 8.55595917 8.18356323 8.56114197 C5.05322788 8.49336477 3.39821433 8.36313504 1.04353333 6.21588135 C0 4 0 4 0 0 Z " fill="#9A9A9A" transform="translate(260,354)"/>
<path d="M0 0 C1.08748438 3.26245314 0.95343238 3.94983995 0.01196289 7.10424805 C-0.23179077 7.93629761 -0.47554443 8.76834717 -0.72668457 9.62561035 C-0.9909021 10.49552612 -1.25511963 11.36544189 -1.52734375 12.26171875 C-1.76424927 13.06468384 -2.00115479 13.86764893 -2.24523926 14.69494629 C-3.13321454 17.6952757 -4.03626867 20.69112573 -4.9375 23.6875 C-6.938125 30.390625 -8.93875 37.09375 -11 44 C27.115 44.495 27.115 44.495 66 45 C66 45.33 66 45.66 66 46 C39.93 46 13.86 46 -13 46 C-13 39.20099189 -12.76702449 38.42762496 -10 33 C-9.62478809 31.36320603 -9.29467771 29.71569192 -9 28.0625 C-8.21896443 23.69520945 -6.75042832 20.08433275 -5 16 C-4.63426339 14.31922515 -4.30281535 12.63074252 -4 10.9375 C-3.2670213 6.86884706 -2.08940475 3.60897185 0 0 Z " fill="#D1D0CF" transform="translate(209,635)"/>
<path d="M0 0 C1.30617279 -0.002062 1.30617279 -0.002062 2.63873291 -0.00416565 C4.06724327 0.00122726 4.06724327 0.00122726 5.52461243 0.00672913 C6.52966827 0.0065831 7.53472412 0.00643707 8.57023621 0.00628662 C11.89790492 0.00698423 15.22551792 0.01476958 18.55317688 0.02259827 C20.85817433 0.02446298 23.16317218 0.02588663 25.46817017 0.02688599 C31.53940421 0.03070692 37.61061439 0.04053363 43.68183899 0.05158997 C49.87527646 0.06181317 56.06871778 0.06638556 62.26216125 0.07142639 C74.41777071 0.08215625 86.57336244 0.09922762 98.72895813 0.12025452 C98.72895813 0.45025452 98.72895813 0.78025452 98.72895813 1.12025452 C77.81952792 2.31465589 56.9309719 2.24063209 35.99604797 2.18891907 C31.32889773 2.17852154 26.66174172 2.17408697 21.99458313 2.16908264 C12.90602678 2.15849282 3.81749534 2.14152232 -5.27104187 2.12025452 C-5.57522034 3.23847595 -5.57522034 3.23847595 -5.88554382 4.37928772 C-6.15326599 5.36243958 -6.42098816 6.34559143 -6.69682312 7.35853577 C-6.96148376 8.33089172 -7.22614441 9.30324768 -7.49882507 10.30506897 C-8.39832041 13.58425984 -9.32732768 16.85355156 -10.27104187 20.12025452 C-10.60104187 20.12025452 -10.93104187 20.12025452 -11.27104187 20.12025452 C-10.64429536 6.95857787 -10.64429536 6.95857787 -7.27104187 1.12025452 C-4.49558778 0.19510315 -2.8614465 -0.00348532 0 0 Z " fill="#BDBCBA" transform="translate(261.2710418701172,475.87974548339844)"/>
<path d="M0 0 C1.32 0.33 2.64 0.66 4 1 C4 1.66 4 2.32 4 3 C4.763125 3.28875 5.52625 3.5775 6.3125 3.875 C9 5 9 5 12 7 C12 7.66 12 8.32 12 9 C12.8971875 9.433125 12.8971875 9.433125 13.8125 9.875 C16 11 16 11 19 13 C19.1875 16.125 19.1875 16.125 19 19 C18.34 19 17.68 19 17 19 C16.75894531 19.56847656 16.51789062 20.13695312 16.26953125 20.72265625 C14.75031912 23.44788908 12.92581019 25.26690339 10.6875 27.4375 C9.87667969 28.23027344 9.06585937 29.02304687 8.23046875 29.83984375 C7.49441406 30.55269531 6.75835938 31.26554688 6 32 C5.175 32.825 4.35 33.65 3.5 34.5 C-0.33333333 38.33333333 -4.16666667 42.16666667 -8 46 C-8.66 45.67 -9.32 45.34 -10 45 C-9.03960815 44.04746338 -9.03960815 44.04746338 -8.05981445 43.07568359 C-5.6628937 40.69590695 -3.26831837 38.31381806 -0.87524414 35.93017578 C0.15671703 34.9032124 1.18957778 33.87715209 2.22338867 32.85205078 C3.71776702 31.36993918 5.20877223 29.88450178 6.69921875 28.3984375 C7.59471436 27.50817871 8.49020996 26.61791992 9.4128418 25.70068359 C14.56153275 20.97295302 14.56153275 20.97295302 17 15 C15.34516392 13.50122497 13.62409488 12.07511527 11.875 10.6875 C10.87597656 9.88699219 9.87695312 9.08648438 8.84765625 8.26171875 C7.43806641 7.14216797 7.43806641 7.14216797 6 6 C3.96956745 4.36106863 1.97394094 2.70719216 0 1 C0 0.67 0 0.34 0 0 Z " fill="#F3F3F3" transform="translate(781,595)"/>
<path d="M0 0 C0.99 0 1.98 0 3 0 C1.4422692 3.82352106 -0.91595258 6.29205593 -4 9 C-4.99 9 -5.98 9 -7 9 C-6.77828125 9.59425781 -6.5565625 10.18851563 -6.328125 10.80078125 C-6 13 -6 13 -7.109375 14.66796875 C-7.65078125 15.16941406 -8.1921875 15.67085937 -8.75 16.1875 C-9.28109375 16.69667969 -9.8121875 17.20585938 -10.359375 17.73046875 C-12 19 -12 19 -15 20 C-15.10481309 25.76471999 -14.73291127 31.2852729 -14 37 C-13.90460938 37.77472656 -13.80921875 38.54945313 -13.7109375 39.34765625 C-13.47826451 41.23230746 -13.23975175 43.11623622 -13 45 C-18.19504589 39.80495411 -17.22397387 28.26040226 -17.265625 21.2421875 C-17 19 -17 19 -15 16 C-14.34 16 -13.68 16 -13 16 C-12.731875 15.41734375 -12.46375 14.8346875 -12.1875 14.234375 C-10.98519009 11.97213399 -9.66174087 10.19423682 -8 8.25 C-7.2265625 7.32960938 -7.2265625 7.32960938 -6.4375 6.390625 C-5 5 -5 5 -3 5 C-2.690625 4.360625 -2.38125 3.72125 -2.0625 3.0625 C-1 1 -1 1 0 0 Z " fill="#999998" transform="translate(494,513)"/>
<path d="M0 0 C0.66 0.33 1.32 0.66 2 1 C0.54712339 2.33927721 -0.91247259 3.67126847 -2.375 5 C-3.18710937 5.7425 -3.99921875 6.485 -4.8359375 7.25 C-7 9 -7 9 -9 9 C-9.0825 9.556875 -9.165 10.11375 -9.25 10.6875 C-10.93718382 15.88965011 -14.78835656 18.65789569 -19.1875 21.5625 C-22.39997538 24.02020877 -23.79340001 25.24493727 -24.87109375 29.18359375 C-25.09899597 32.1603474 -25.16881618 35.020891 -25 38 C-25.33 38 -25.66 38 -26 38 C-26.91457003 32.43842552 -27.32086397 28.324335 -25 23 C-24.34 23 -23.68 23 -23 23 C-23 22.34 -23 21.68 -23 21 C-22.34 21 -21.68 21 -21 21 C-20.67 20.01 -20.34 19.02 -20 18 C-19.34 18 -18.68 18 -18 18 C-18 17.34 -18 16.68 -18 16 C-17.34 16 -16.68 16 -16 16 C-15.7525 15.4225 -15.505 14.845 -15.25 14.25 C-13.81700012 11.67060021 -12.21575324 9.93878408 -10 8 C-9.34 8 -8.68 8 -8 8 C-8 7.34 -8 6.68 -8 6 C-6.25 4.4921875 -6.25 4.4921875 -4 2.875 C-3.2575 2.33617187 -2.515 1.79734375 -1.75 1.2421875 C-0.88375 0.62730469 -0.88375 0.62730469 0 0 Z " fill="#B1B1B0" transform="translate(559,344)"/>
<path d="M0 0 C0.66 0 1.32 0 2 0 C1.40380045 4.86896303 0.43023178 9.32790951 -1 14 C-0.34 14 0.32 14 1 14 C-3.5648415 30.5648415 -3.5648415 30.5648415 -8 35 C-8.40214229 28.83381819 -6.96818336 23.82254243 -5 18 C-4.34 18 -3.68 18 -3 18 C-2.95101562 17.28714844 -2.90203125 16.57429687 -2.8515625 15.83984375 C-2.41871477 10.29491509 -1.75971184 5.27913551 0 0 Z " fill="#9B9B9B" transform="translate(233,549)"/>
<path d="M0 0 C4.19803318 2.11997681 6.06706395 4.74613112 7.8359375 9.01953125 C8.4375 10.9375 8.4375 10.9375 9 14 C8.34 14 7.68 14 7 14 C7 13.01 7 12.02 7 11 C6.34 11 5.68 11 5 11 C4.67 9.68 4.34 8.36 4 7 C3.34 7 2.68 7 2 7 C1.33109741 6.28009888 1.33109741 6.28009888 0.64868164 5.5456543 C-1.41243519 3.61333819 -2.59395165 3.5165436 -5.37890625 3.26953125 C-6.21744141 3.18896484 -7.05597656 3.10839844 -7.91992188 3.02539062 C-9.22799805 2.92000977 -9.22799805 2.92000977 -10.5625 2.8125 C-11.87637695 2.6897168 -11.87637695 2.6897168 -13.21679688 2.56445312 C-17.60168471 2.14798458 -17.60168471 2.14798458 -22 2 C-22 1.34 -22 0.68 -22 0 C-15.30817506 -2.23060831 -6.86196926 -1.33135674 0 0 Z " fill="#515151" transform="translate(333,547)"/>
<path d="M0 0 C0.99 0.66 1.98 1.32 3 2 C2.33355469 2.3403125 1.66710937 2.680625 0.98046875 3.03125 C-5.28073013 6.32385249 -10.95766718 9.9855026 -16.58984375 14.265625 C-18.67953682 15.76939117 -20.66350836 16.93746552 -23 18 C-22.67841271 14.99851864 -22.01846979 14.01794208 -19.8125 11.875 C-17 10 -17 10 -14 9.0625 C-10.34362417 7.76753356 -8.64110837 5.78387099 -6 3 C-5.01 2.67 -4.02 2.34 -3 2 C-2.34 2.33 -1.68 2.66 -1 3 C-0.67 2.01 -0.34 1.02 0 0 Z " fill="#8A8A8A" transform="translate(639,381)"/>
<path d="M0 0 C0.66 0 1.32 0 2 0 C2 0.66 2 1.32 2 2 C2.66 2.33 3.32 2.66 4 3 C3.71788123 4.6266848 3.42397625 6.25132896 3.125 7.875 C2.96257812 8.77992188 2.80015625 9.68484375 2.6328125 10.6171875 C1.70069533 14.12701139 0.00513108 14.99657928 -3 17 C-2.54775239 11.08507728 -1.8417395 5.64800112 0 0 Z " fill="#757474" transform="translate(223,584)"/>
<path d="M0 0 C0 0.99 0 1.98 0 3 C-1.11375 2.67 -2.2275 2.34 -3.375 2 C-6.70067988 1.52916002 -7.8498785 1.90665249 -10.7578125 3.71484375 C-13.25215706 5.73661306 -15.65669384 7.8055514 -18 10 C-18.33 9.34 -18.66 8.68 -19 8 C-18.67 7.34 -18.34 6.68 -18 6 C-17.34 6 -16.68 6 -16 6 C-16 5.34 -16 4.68 -16 4 C-15.34 4 -14.68 4 -14 4 C-13.9175 3.38125 -13.835 2.7625 -13.75 2.125 C-13 0 -13 0 -11.375 -1.3125 C-7.47737298 -2.44076045 -3.61300545 -1.80650272 0 0 Z " fill="#A3A3A3" transform="translate(751,567)"/>
<path d="M0 0 C0.66 0.33 1.32 0.66 2 1 C2 1.66 2 2.32 2 3 C2.99 2.67 3.98 2.34 5 2 C5.721875 2.763125 6.44375 3.52625 7.1875 4.3125 C10.28559844 7.27290517 13.21428583 9.28571433 17.1875 10.875 C19.70576933 12.43806372 20.12882028 14.24126422 21 17 C20.01 16.67 19.02 16.34 18 16 C18 15.34 18 14.68 18 14 C17.278125 13.74089844 16.55625 13.48179687 15.8125 13.21484375 C12.88257839 11.94928039 10.57829296 10.43579098 8 8.5625 C4.74487985 6.20762402 1.47039857 4.02646488 -2 2 C-1.34 1.34 -0.68 0.68 0 0 Z " fill="#9F9F9E" transform="translate(724,380)"/>
<path d="M0 0 C0.99 0.33 1.98 0.66 3 1 C3 1.66 3 2.32 3 3 C3.66 3 4.32 3 5 3 C10 8.47619048 10 8.47619048 10 11 C10.66 11 11.32 11 12 11 C15 14.46153846 15 14.46153846 15 17 C15.66 17 16.32 17 17 17 C17.33 18.98 17.66 20.96 18 23 C16.02 24.32 14.04 25.64 12 27 C11.34 26.67 10.68 26.34 10 26 C11.98 24.68 13.96 23.36 16 22 C14.31170568 17.91412795 11.44018303 14.84538481 8.5625 11.5625 C5.32457146 7.8650494 2.38762838 4.33010571 0 0 Z " fill="#F2F1F1" transform="translate(810,349)"/>
<path d="M0 0 C1.28197119 3.84591358 0.26574601 6.34560764 -0.87109375 10.07421875 C-1.0722731 10.7580513 -1.27345245 11.44188385 -1.48072815 12.1464386 C-2.12492517 14.3292762 -2.78103496 16.5083241 -3.4375 18.6875 C-3.87644048 20.16708374 -4.31460116 21.64689906 -4.75195312 23.12695312 C-5.82560644 26.75405092 -6.909957 30.37779565 -8 34 C-8.33 34 -8.66 34 -9 34 C-8.64844598 27.29622856 -7.80101683 22.16223703 -5 16 C-4.63113391 14.31990918 -4.29993578 12.63125497 -4 10.9375 C-3.2670213 6.86884706 -2.08940475 3.60897185 0 0 Z " fill="#F4F4F4" transform="translate(219,601)"/>
<path d="M0 0 C4.29641368 0.4773793 6.0725589 3.00602614 9 6 C11.11120574 7.60404458 13.25428568 9.1467177 15.42578125 10.66796875 C15.94527344 11.10753906 16.46476563 11.54710937 17 12 C17 12.66 17 13.32 17 14 C17.99 14.33 18.98 14.66 20 15 C19.67 15.66 19.34 16.32 19 17 C18.4225 16.505 17.845 16.01 17.25 15.5 C14.89599371 13.63019987 14.89599371 13.63019987 11 14 C8.7109375 11.69921875 8.7109375 11.69921875 6.375 8.6875 C5.59898437 7.70136719 4.82296875 6.71523438 4.0234375 5.69921875 C2.6286029 3.8385417 1.28992339 1.93488508 0 0 Z " fill="#767676" transform="translate(751,570)"/>
<path d="M0 0 C0 3.27763744 -0.60359014 5.06018976 -2 8 C-2.46792969 8.4640625 -2.93585938 8.928125 -3.41796875 9.40625 C-5.14293297 11.14399174 -6.25632535 12.89531982 -7.5 15 C-9.09813923 17.70454332 -10.6959966 19.85674102 -13 22 C-13.99 21.67 -14.98 21.34 -16 21 C-15.01 19.515 -15.01 19.515 -14 18 C-13.34 18 -12.68 18 -12 18 C-11.690625 17.38125 -11.38125 16.7625 -11.0625 16.125 C-10.375 14.75 -9.6875 13.375 -9 12 C-8.34 12 -7.68 12 -7 12 C-6.89816406 11.42765625 -6.79632813 10.8553125 -6.69140625 10.265625 C-5.87708984 7.59724354 -4.65326878 5.94034312 -2.9375 3.75 C-2.38964844 3.04359375 -1.84179688 2.3371875 -1.27734375 1.609375 C-0.85582031 1.07828125 -0.43429687 0.5471875 0 0 Z " fill="#5C5C5B" transform="translate(513,489)"/>
<path d="M0 0 C0.33 0 0.66 0 1 0 C0.54775239 5.91492272 -0.1582605 11.35199888 -2 17 C-2.66 17 -3.32 17 -4 17 C-3.95875 18.03125 -3.9175 19.0625 -3.875 20.125 C-3.99575149 23.86829627 -4.64872018 26.53734547 -6 30 C-7.26772077 26.32271067 -6.79809246 23.36223006 -6.1875 19.5625 C-6.01605469 18.45003906 -5.84460938 17.33757813 -5.66796875 16.19140625 C-5.05407008 13.25833484 -4.21055354 10.73268416 -3 8 C-2.34 8 -1.68 8 -1 8 C-0.67 5.36 -0.34 2.72 0 0 Z " fill="#999898" transform="translate(295,609)"/>
<path d="M0 0 C3.75773676 1.25257892 5.35633168 3.08518622 8 6 C8.33 6.721875 8.66 7.44375 9 8.1875 C10.42942644 10.77833542 12.2832723 11.00607523 15 12 C16.8125 13.625 16.8125 13.625 18 15 C14.88308078 15.30462038 13.43340631 15.30611761 10.83203125 13.46875 C9.83236328 12.49421875 9.83236328 12.49421875 8.8125 11.5 C6.32985869 8.75583961 6.32985869 8.75583961 3 8 C3 6.68 3 5.36 3 4 C2.01 4 1.02 4 0 4 C0 2.68 0 1.36 0 0 Z " fill="#6E6E6D" transform="translate(584,588)"/>
<path d="M0 0 C0.66 0 1.32 0 2 0 C2.33 1.32 2.66 2.64 3 4 C3.66 4 4.32 4 5 4 C5 4.66 5 5.32 5 6 C5.639375 6.268125 6.27875 6.53625 6.9375 6.8125 C9 8 9 8 10 11 C10.66 11 11.32 11 12 11 C12 11.66 12 12.32 12 13 C13.32 13.66 14.64 14.32 16 15 C16 15.99 16 16.98 16 18 C15.608125 17.566875 15.21625 17.13375 14.8125 16.6875 C13.05912095 14.91423633 13.05912095 14.91423633 10.8125 13.8125 C6.69238284 11.15731339 3.00537425 7.88535976 0 4 C0 2.68 0 1.36 0 0 Z " fill="#898888" transform="translate(502,665)"/>
<path d="M0 0 C0.80824219 0.10183594 1.61648438 0.20367187 2.44921875 0.30859375 C3.06410156 0.39238281 3.67898438 0.47617187 4.3125 0.5625 C4.3125 0.8925 4.3125 1.2225 4.3125 1.5625 C1.0125 1.5625 -2.2875 1.5625 -5.6875 1.5625 C-5.88085938 2.27535156 -6.07421875 2.98820312 -6.2734375 3.72265625 C-7.71162775 9.01263328 -9.16602632 14.29586033 -10.6875 19.5625 C-11.0175 19.5625 -11.3475 19.5625 -11.6875 19.5625 C-11.06075349 6.40082335 -11.06075349 6.40082335 -7.6875 0.5625 C-4.59271121 -0.46909626 -3.16118607 -0.41232862 0 0 Z " fill="#ECEBEA" transform="translate(261.6875,476.4375)"/>
<path d="M0 0 C6.85595229 1.34138197 11.44460209 4.91345915 17 9 C19.71722284 10.84608045 22.43788549 12.68670147 25.1640625 14.51953125 C25.76992188 15.00808594 26.37578125 15.49664062 27 16 C27 16.66 27 17.32 27 18 C24.11825448 16.62521861 21.49348031 15.07021365 18.84765625 13.28515625 C17.68266602 12.50301758 17.68266602 12.50301758 16.49414062 11.70507812 C15.69169922 11.16302734 14.88925781 10.62097656 14.0625 10.0625 C8.07365582 6.00451542 8.07365582 6.00451542 1.93359375 2.18359375 C1.29550781 1.79300781 0.65742187 1.40242188 0 1 C0 0.67 0 0.34 0 0 Z " fill="#ECEBEB" transform="translate(766,315)"/>
<path d="M0 0 C6.6 0.33 13.2 0.66 20 1 C17.51737568 3.48262432 15.38224713 4.07286975 12.0625 5.1875 C11.00160156 5.55230469 9.94070313 5.91710937 8.84765625 6.29296875 C6 7 6 7 3 6 C4.98 5.01 6.96 4.02 9 3 C4.545 2.01 4.545 2.01 0 1 C0 0.67 0 0.34 0 0 Z " fill="#050504" transform="translate(585,718)"/>
<path d="M0 0 C0.99 0.66 1.98 1.32 3 2 C0.60835832 3.32066755 -1.78780216 4.63161792 -4.1875 5.9375 C-4.86103516 6.31068359 -5.53457031 6.68386719 -6.22851562 7.06835938 C-9.80620758 9.00554868 -12.8986345 10.49827956 -17 11 C-16 8 -16 8 -14.41772461 6.92504883 C-13.75264893 6.60560303 -13.08757324 6.28615723 -12.40234375 5.95703125 C-11.68369141 5.60576172 -10.96503906 5.25449219 -10.22460938 4.89257812 C-9.46986328 4.53615234 -8.71511719 4.17972656 -7.9375 3.8125 C-7.17888672 3.44447266 -6.42027344 3.07644531 -5.63867188 2.69726562 C-3.76346181 1.78914503 -1.88227267 0.89338985 0 0 Z " fill="#595959" transform="translate(438,523)"/>
<path d="M0 0 C-0.66 0.66 -1.32 1.32 -2 2 C-3.94445689 2 -5.89128835 1.99512335 -7.83203125 1.875 C-10.08974259 1.88837746 -10.08974259 1.88837746 -12.3671875 2.9609375 C-15.41799531 4.16496551 -18.04682365 4.40968068 -21.3125 4.625 C-22.38113281 4.69976562 -23.44976563 4.77453125 -24.55078125 4.8515625 C-25.76314453 4.92503906 -25.76314453 4.92503906 -27 5 C-22.88919694 0.88919694 -16.36634625 0.32493798 -10.8125 -0.75 C-10.10158203 -0.90082031 -9.39066406 -1.05164063 -8.65820312 -1.20703125 C-3.35276683 -2.23517789 -3.35276683 -2.23517789 0 0 Z " fill="#ABAAAA" transform="translate(662,299)"/>
<path d="M0 0 C-1.98 0.66 -3.96 1.32 -6 2 C-5.67 2.99 -5.34 3.98 -5 5 C-8.01887174 6.00629058 -11.03749996 7.01224488 -14.0625 8 C-16.75054393 8.91507878 -19.37494403 9.9190946 -22 11 C-18.62827167 7.17985767 -14.87883369 5.03022857 -10.4375 2.6875 C-9.76525391 2.31560547 -9.09300781 1.94371094 -8.40039062 1.56054688 C-3.36845576 -1.12281859 -3.36845576 -1.12281859 0 0 Z " fill="#A9A9A8" transform="translate(605,317)"/>
<path d="M0 0 C0.66 0.33 1.32 0.66 2 1 C1.00795408 2.33926199 0.00573778 3.67098936 -1 5 C-1.598125 5.825 -2.19625 6.65 -2.8125 7.5 C-5.26001817 10.29716362 -7.84393002 12.0633207 -11 14 C-12.32 13.34 -13.64 12.68 -15 12 C-13.56542672 11.0165504 -12.12722594 10.03839079 -10.6875 9.0625 C-9.88699219 8.51722656 -9.08648437 7.97195313 -8.26171875 7.41015625 C-6 6 -6 6 -3 5 C-1.8499169 3.03327085 -1.8499169 3.03327085 -1 1 C-0.67 0.67 -0.34 0.34 0 0 Z " fill="#808080" transform="translate(417,452)"/>
<path d="M0 0 C8.04212755 -0.16677223 15.98603754 0.3533402 24 1 C24 1.33 24 1.66 24 2 C7.74111186 3.65646979 7.74111186 3.65646979 1 2 C0.67 1.34 0.34 0.68 0 0 Z " fill="#2A292A" transform="translate(695,297)"/>
<path d="M0 0 C0.33 0.66 0.66 1.32 1 2 C1.99 2 2.98 2 4 2 C5.60546875 3.828125 5.60546875 3.828125 7.1875 6.25 C7.71730469 7.03890625 8.24710937 7.8278125 8.79296875 8.640625 C10 11 10 11 10 15 C9.34 15 8.68 15 8 15 C5 10.61538462 5 10.61538462 5 8 C4.34 8 3.68 8 3 8 C0.95830515 5.09451118 0 3.59857954 0 0 Z " fill="#808080" transform="translate(389,638)"/>
<path d="M0 0 C-1 2 -1 2 -3.51171875 2.8515625 C-5.08373047 3.23441406 -5.08373047 3.23441406 -6.6875 3.625 C-8.24017578 4.01558594 -8.24017578 4.01558594 -9.82421875 4.4140625 C-12.96214097 4.99301494 -15.81757007 5.1049677 -19 5 C-17 2 -17 2 -14.35546875 1.26953125 C-13.31003906 1.11871094 -12.26460938 0.96789062 -11.1875 0.8125 C-9.63095703 0.57466797 -9.63095703 0.57466797 -8.04296875 0.33203125 C-5.32772687 0.03575967 -2.72756902 -0.06554232 0 0 Z " fill="#161515" transform="translate(377,474)"/>
<path d="M0 0 C0.78375 0.495 1.5675 0.99 2.375 1.5 C4.78552327 3.16537965 4.78552327 3.16537965 7 3 C7 3.66 7 4.32 7 5 C7.66 5 8.32 5 9 5 C9.2475 5.7425 9.495 6.485 9.75 7.25 C11.09365194 10.20603427 12.68986685 11.76687128 15 14 C15 14.66 15 15.32 15 16 C14.34 16 13.68 16 13 16 C8 10.52380952 8 10.52380952 8 8 C7.01 7.67 6.02 7.34 5 7 C5 6.34 5 5.68 5 5 C4.360625 4.731875 3.72125 4.46375 3.0625 4.1875 C1 3 1 3 0 0 Z " fill="#C0C0C0" transform="translate(220,301)"/>
<path d="M0 0 C3.48670834 1.1094072 6.77484237 2.26337666 10 4 C10 4.66 10 5.32 10 6 C11.65 6.33 13.3 6.66 15 7 C13.02 7.99 13.02 7.99 11 9 C11 8.34 11 7.68 11 7 C8.69 6.67 6.38 6.34 4 6 C4 5.34 4 4.68 4 4 C3.34 3.67 2.68 3.34 2 3 C1.34 2.01 0.68 1.02 0 0 Z " fill="#8C8C8B" transform="translate(542,700)"/>
<path d="M0 0 C0.94875 0.350625 1.8975 0.70125 2.875 1.0625 C2.875 1.7225 2.875 2.3825 2.875 3.0625 C3.431875 2.835625 3.98875 2.60875 4.5625 2.375 C7.79623084 1.93800935 9.26573978 3.25051373 11.875 5.0625 C8.06749826 6.33166725 6.5647429 5.54026092 2.8125 4.25 C1.21728516 3.71439453 1.21728516 3.71439453 -0.41015625 3.16796875 C-3.125 2.0625 -3.125 2.0625 -5.125 0.0625 C-3.125 -0.9375 -3.125 -0.9375 0 0 Z " fill="#737372" transform="translate(581.125,675.9375)"/>
<path d="M0 0 C3.9252025 3.70090521 6.94580156 7.54959656 10 12 C9.67 12.66 9.34 13.32 9 14 C5.74808029 10.83841139 2.58685081 7.73656228 0 4 C0 2.68 0 1.36 0 0 Z " fill="#6F6E6D" transform="translate(422,557)"/>
<path d="M0 0 C0.99 0 1.98 0 3 0 C1.43903239 3.83146596 -0.91411305 6.28148054 -4 9 C-6.3125 9.8125 -6.3125 9.8125 -8 10 C-7.1875 8.0625 -7.1875 8.0625 -6 6 C-5.01 5.67 -4.02 5.34 -3 5 C-1.8499169 3.03327085 -1.8499169 3.03327085 -1 1 C-0.67 0.67 -0.34 0.34 0 0 Z " fill="#707070" transform="translate(494,513)"/>
<path d="M0 0 C0.66 0 1.32 0 2 0 C3.5056904 5.80766296 4.21824777 10.9981863 4 17 C3.67 17 3.34 17 3 17 C3 15.02 3 13.04 3 11 C1.68 10.34 0.36 9.68 -1 9 C-0.67 6.03 -0.34 3.06 0 0 Z " fill="#949493" transform="translate(507,376)"/>
<path d="M0 0 C2.475 0.99 2.475 0.99 5 2 C5 2.66 5 3.32 5 4 C5.66 4 6.32 4 7 4 C7 4.66 7 5.32 7 6 C7.53625 6.20625 8.0725 6.4125 8.625 6.625 C12.0017654 8.57996944 14.30474839 11.18223695 17 14 C16.67 14.66 16.34 15.32 16 16 C15.5153125 15.50371094 15.030625 15.00742187 14.53125 14.49609375 C10.33210632 10.24042314 6.03753775 6.20476744 1.46875 2.34765625 C0.9840625 1.90292969 0.499375 1.45820313 0 1 C0 0.67 0 0.34 0 0 Z " fill="#F6F6F6" transform="translate(793,333)"/>
<path d="M0 0 C0.66 0 1.32 0 2 0 C2.12375 0.804375 2.2475 1.60875 2.375 2.4375 C2.684375 3.7059375 2.684375 3.7059375 3 5 C3.66 5.33 4.32 5.66 5 6 C6.17486497 8.62616876 7.09014862 11.27044585 8 14 C7.34 14 6.68 14 6 14 C3 9.61538462 3 9.61538462 3 7 C2.34 7 1.68 7 1 7 C-0.625 5 -0.625 5 -2 3 C-1 1 -1 1 0 0 Z " fill="#9C9B9B" transform="translate(237,316)"/>
<path d="M0 0 C0.721875 0.103125 1.44375 0.20625 2.1875 0.3125 C-0.44327181 3.23557979 -3.51264661 5.20059383 -6.8125 7.3125 C-8.1428125 8.2096875 -8.1428125 8.2096875 -9.5 9.125 C-10.263125 9.516875 -11.02625 9.90875 -11.8125 10.3125 C-12.8025 9.9825 -13.7925 9.6525 -14.8125 9.3125 C-13.760625 8.755625 -12.70875 8.19875 -11.625 7.625 C-8.91087428 6.10137611 -7.40131285 4.88173251 -5.1875 2.5625 C-2.8125 0.3125 -2.8125 0.3125 0 0 Z " fill="#9B9A9A" transform="translate(750.8125,654.6875)"/>
<path d="M0 0 C-0.33 0.99 -0.66 1.98 -1 3 C-4.99616283 4.33205428 -7.97775562 5.117172 -12.1875 5.0625 C-13.53908203 5.04896484 -13.53908203 5.04896484 -14.91796875 5.03515625 C-15.60503906 5.02355469 -16.29210937 5.01195312 -17 5 C-14.46394931 2.46394931 -12.53123444 2.20749627 -9.0625 1.375 C-8.00160156 1.11460937 -6.94070313 0.85421875 -5.84765625 0.5859375 C-3 0 -3 0 0 0 Z " fill="#908F8E" transform="translate(683,610)"/>
<path d="M0 0 C3.52908336 -0.41518628 5.0119449 0.00655798 8.1875 1.75 C10.81323035 3.85058428 11.8728996 4.92608982 13 8 C13.33 8.66 13.66 9.32 14 10 C11.50638429 8.79618552 9.31856917 7.54571278 7 6 C7 5.34 7 4.68 7 4 C6.401875 3.896875 5.80375 3.79375 5.1875 3.6875 C2.71756736 2.91123545 1.67748765 1.92911079 0 0 Z " fill="#848483" transform="translate(405,372)"/>
<path d="M0 0 C2.32495277 0.38749213 4.65851268 0.72982839 7 1 C6.67 1.66 6.34 2.32 6 3 C5.2265625 2.86722656 4.453125 2.73445313 3.65625 2.59765625 C-2.21975787 1.60135293 -8.07932027 0.68315535 -14 0 C-14 -0.33 -14 -0.66 -14 -1 C-12.41870971 -1.22331199 -10.83478911 -1.42804644 -9.25 -1.625 C-8.36828125 -1.74101562 -7.4865625 -1.85703125 -6.578125 -1.9765625 C-3.71433417 -2.00259696 -2.46148608 -1.37197585 0 0 Z " fill="#8A8988" transform="translate(705,374)"/>
<path d="M0 0 C0.33 0.99 0.66 1.98 1 3 C-5.04057576 5.27057103 -10.56318772 6.48914188 -17 7 C-13.74551903 4.83034602 -10.4746415 3.63856738 -6.8125 2.375 C-6.15830078 2.14554688 -5.50410156 1.91609375 -4.83007812 1.6796875 C-3.22135865 1.11604856 -1.61085023 0.55752016 0 0 Z " fill="#E3E3E3" transform="translate(605,719)"/>
<path d="M0 0 C0.33 0 0.66 0 1 0 C1.103125 1.155 1.20625 2.31 1.3125 3.5 C1.78134312 7.33907775 2.85673881 10.59660525 4.30078125 14.16796875 C5.15507789 16.40632139 5.63066957 18.63628522 6 21 C5.34 20.67 4.68 20.34 4 20 C4 19.01 4 18.02 4 17 C3.34 17 2.68 17 2 17 C1.87625 15.906875 1.7525 14.81375 1.625 13.6875 C1.24535199 9.92618198 1.24535199 9.92618198 -1 7 C-0.625 3.3125 -0.625 3.3125 0 0 Z " fill="#747471" transform="translate(561,541)"/>
<path d="M0 0 C0.66 0 1.32 0 2 0 C2 1.32 2 2.64 2 4 C1.34 4 0.68 4 0 4 C-0.33 7.3 -0.66 10.6 -1 14 C-1.33 12.68 -1.66 11.36 -2 10 C-2.66 10 -3.32 10 -4 10 C-3.52449439 8.51965236 -3.04448784 7.04074979 -2.5625 5.5625 C-2.29566406 4.73878906 -2.02882813 3.91507812 -1.75390625 3.06640625 C-1 1 -1 1 0 0 Z " fill="#636363" transform="translate(567,467)"/>
<path d="M0 0 C0.33 0 0.66 0 1 0 C1.41772532 5.4304292 0.15507411 10.05716947 -2 15 C-2.66 15.66 -3.32 16.32 -4 17 C-3.67 12.38 -3.34 7.76 -3 3 C-2.01 3.33 -1.02 3.66 0 4 C0 2.68 0 1.36 0 0 Z " fill="#9F9E9F" transform="translate(508,436)"/>
<path d="M0 0 C1.65 0.33 3.3 0.66 5 1 C2.12921701 2.91385532 -0.33411656 3.96432952 -3.5625 5.125 C-4.53316406 5.47820312 -5.50382813 5.83140625 -6.50390625 6.1953125 C-9 7 -9 7 -11 7 C-10.67 6.01 -10.34 5.02 -10 4 C-6.5625 2.75 -6.5625 2.75 -3 2 C-2.34 2.33 -1.68 2.66 -1 3 C-0.67 2.01 -0.34 1.02 0 0 Z " fill="#686767" transform="translate(653,375)"/>
<path d="M0 0 C-2.17103679 2.17103679 -4.15418063 3.27864843 -6.875 4.6875 C-7.73867188 5.14511719 -8.60234375 5.60273437 -9.4921875 6.07421875 C-12.2243612 7.08282493 -13.32738894 7.0255368 -16 6 C-15.36191406 5.81824219 -14.72382812 5.63648438 -14.06640625 5.44921875 C-13.24011719 5.19785156 -12.41382813 4.94648437 -11.5625 4.6875 C-10.32693359 4.32205078 -10.32693359 4.32205078 -9.06640625 3.94921875 C-8.38449219 3.63597656 -7.70257812 3.32273437 -7 3 C-6.67 2.01 -6.34 1.02 -6 0 C-3.50907189 -1.24546405 -2.58919267 -0.7767578 0 0 Z " fill="#A0A0A0" transform="translate(731,668)"/>
<path d="M0 0 C0.66 0.33 1.32 0.66 2 1 C1.34 3.64 0.68 6.28 0 9 C-0.66 9 -1.32 9 -2 9 C-1.938125 9.78375 -1.87625 10.5675 -1.8125 11.375 C-1.874375 12.24125 -1.93625 13.1075 -2 14 C-2.99 14.66 -3.98 15.32 -5 16 C-4.54762239 14.08191891 -4.08785537 12.16557967 -3.625 10.25 C-3.24214844 8.64898438 -3.24214844 8.64898438 -2.8515625 7.015625 C-2.12466459 4.44147278 -1.2973776 2.32399814 0 0 Z " fill="#181817" transform="translate(216,617)"/>
<path d="M0 0 C0.6875 1.75 0.6875 1.75 1 4 C0.03126968 5.35622245 -0.97676564 6.68441297 -2 8 C-3.1285162 10.63151759 -4.05311698 13.29461995 -5 16 C-6.53445094 12.93109813 -5.54984289 10.29905734 -5 7 C-4.01 6.67 -3.02 6.34 -2 6 C-0.77479736 2.99152582 -0.77479736 2.99152582 0 0 Z " fill="#9B9B99" transform="translate(575,450)"/>
<path d="M0 0 C2.54384726 1.27192363 2.69368156 2.19948469 3.6875 4.8125 C3.95949219 5.49957031 4.23148437 6.18664062 4.51171875 6.89453125 C5.06812731 9.29376496 4.77364938 10.6894364 4 13 C2 12 2 12 0.875 8.75 C0.14536518 5.62299365 -0.19234975 3.17377095 0 0 Z " fill="#939393" transform="translate(502,362)"/>
<path d="M0 0 C4.25177923 0.47241991 6.29969203 2.84964071 9 6 C9 6.99 9 7.98 9 9 C7 9 7 9 5.2734375 7.28515625 C4.64695312 6.55167969 4.02046875 5.81820312 3.375 5.0625 C2.74335937 4.33160156 2.11171875 3.60070312 1.4609375 2.84765625 C0 1 0 1 0 0 Z " fill="#656563" transform="translate(519,637)"/>
<path d="M0 0 C0.66 0.33 1.32 0.66 2 1 C0.68139111 5.61513112 -1.21355437 9.09897612 -4 13 C-4.6875 11.3125 -4.6875 11.3125 -5 9 C-3.6875 6.25 -3.6875 6.25 -2 4 C-1.34 4 -0.68 4 0 4 C0 2.68 0 1.36 0 0 Z " fill="#626261" transform="translate(497,463)"/>
<path d="M0 0 C4.0042343 3.49087093 5.62671065 5.64951939 6 11 C5.34 10.67 4.68 10.34 4 10 C4 9.34 4 8.68 4 8 C3.34 8 2.68 8 2 8 C0.3125 5.6875 0.3125 5.6875 -1 3 C-0.67 2.01 -0.34 1.02 0 0 Z " fill="#848685" transform="translate(403,657)"/>
<path d="M0 0 C0.99 0.495 0.99 0.495 2 1 C2 1.99 2 2.98 2 4 C2.61875 4.2475 3.2375 4.495 3.875 4.75 C6.35068687 6.20628639 6.95125002 7.37812506 8 10 C4.9054129 9.6684371 3.97195314 8.97117406 1.75 6.6875 C0 4 0 4 0 0 Z " fill="#5E5F5E" transform="translate(511,625)"/>
<path d="M0 0 C0.66 0 1.32 0 2 0 C5 4.38461538 5 4.38461538 5 7 C5.66 7 6.32 7 7 7 C7.66 8.65 8.32 10.3 9 12 C4.20102652 9.64414029 4.20102652 9.64414029 2 8 C1.125 5.4375 1.125 5.4375 1 3 C0.67 2.01 0.34 1.02 0 0 Z " fill="#A7A8A7" transform="translate(435,575)"/>
<path d="M0 0 C3.98671063 1.36687222 6.88494633 3.15195093 10 6 C10 6.66 10 7.32 10 8 C10.99 8.33 11.98 8.66 13 9 C12.67 9.66 12.34 10.32 12 11 C10.18401175 9.54601271 8.37230481 8.08667675 6.5625 6.625 C5.04849609 5.40683594 5.04849609 5.40683594 3.50390625 4.1640625 C1 2 1 2 0 0 Z " fill="#F4F4F3" transform="translate(758,576)"/>
<path d="M0 0 C2.65877957 0.36672822 3.79835472 0.79088638 5.6875 2.75 C7.11211469 5.19219662 7.61312661 7.2145116 8 10 C7.34 10 6.68 10 6 10 C6 9.01 6 8.02 6 7 C5.34 7 4.68 7 4 7 C3.67 5.68 3.34 4.36 3 3 C2.34 3 1.68 3 1 3 C0.67 2.01 0.34 1.02 0 0 Z " fill="#838382" transform="translate(334,551)"/>
<path d="M0 0 C0.66 0 1.32 0 2 0 C0.40907948 4.13639336 -2.60474918 7.23213248 -6 10 C-6.66 10 -7.32 10 -8 10 C-6.44303593 6.17836093 -3.96591316 3.81381505 -1 1 C-0.67 0.67 -0.34 0.34 0 0 Z " fill="#DBDBDA" transform="translate(730,577)"/>
<path d="M0 0 C1.5 1.375 1.5 1.375 3 3 C3 3.66 3 4.32 3 5 C3.66 5 4.32 5 5 5 C5.99 6.98 6.98 8.96 8 11 C7.01 11 6.02 11 5 11 C3.61328125 9.609375 3.61328125 9.609375 2.3125 7.75 C1.87550781 7.14671875 1.43851562 6.5434375 0.98828125 5.921875 C0 4 0 4 0 0 Z " fill="#575756" transform="translate(412,543)"/>
<path d="M0 0 C0.99 0.33 1.98 0.66 3 1 C0.19195732 3.96404505 -2.18315774 6.44499019 -6 8 C-5.66354211 4.85972637 -4.94763914 3.94901705 -2.625 1.6875 C-1.75875 1.130625 -0.8925 0.57375 0 0 Z " fill="#626161" transform="translate(622,391)"/>
<path d="M0 0 C0.928125 0.20625 1.85625 0.4125 2.8125 0.625 C2.8125 1.285 2.8125 1.945 2.8125 2.625 C4.4625 2.955 6.1125 3.285 7.8125 3.625 C4.26582822 4.87627906 2.08996562 4.34785053 -1.4375 3.1875 C-2.32953125 2.90003906 -3.2215625 2.61257813 -4.140625 2.31640625 C-4.81609375 2.08824219 -5.4915625 1.86007812 -6.1875 1.625 C-3.1875 -0.375 -3.1875 -0.375 0 0 Z " fill="#929292" transform="translate(390.1875,364.375)"/>
<path d="M0 0 C0.66 0 1.32 0 2 0 C2.33 1.32 2.66 2.64 3 4 C3.66 4 4.32 4 5 4 C6.625 6 6.625 6 8 8 C7.67 8.66 7.34 9.32 7 10 C3.17398693 8.54875366 1.77670876 6.64225296 0 3 C0 2.01 0 1.02 0 0 Z " fill="#8B8B8A" transform="translate(477,633)"/>
<path d="M0 0 C0.99 0 1.98 0 3 0 C4.38671875 1.53125 4.38671875 1.53125 5.6875 3.5 C6.12449219 4.1496875 6.56148438 4.799375 7.01171875 5.46875 C7.33785156 5.9740625 7.66398437 6.479375 8 7 C7.67 7.66 7.34 8.32 7 9 C3.26115668 6.34345343 1.35021826 4.41889613 0 0 Z " fill="#818180" transform="translate(449,596)"/>
<path d="M0 0 C-2.12780579 2.34058637 -4.11562221 3.70700306 -7 5 C-7 4.34 -7 3.68 -7 3 C-7.99 3.33 -8.98 3.66 -10 4 C-10 3.34 -10 2.68 -10 2 C-3.375 -1.125 -3.375 -1.125 0 0 Z " fill="#818181" transform="translate(618,311)"/>
<path d="M0 0 C0.33 0 0.66 0 1 0 C1 2.31 1 4.62 1 7 C-0.32 7.33 -1.64 7.66 -3 8 C-3.33 7.01 -3.66 6.02 -4 5 C-3.34 5 -2.68 5 -2 5 C-1.7834375 4.0409375 -1.7834375 4.0409375 -1.5625 3.0625 C-1 1 -1 1 0 0 Z " fill="#676666" transform="translate(287,639)"/>
<path d="M0 0 C0.66 0 1.32 0 2 0 C5 4.38461538 5 4.38461538 5 7 C5.66 7 6.32 7 7 7 C6.67 7.99 6.34 8.98 6 10 C5.34 10 4.68 10 4 10 C2.66666667 6.66666667 1.33333333 3.33333333 0 0 Z " fill="#9D9D9C" transform="translate(465,616)"/>
<path d="M0 0 C3.80984844 2.77079887 4.06840752 6.62868145 5 11 C2.38114512 8.63055987 0.58133449 6.16266898 -1 3 C-0.67 2.01 -0.34 1.02 0 0 Z " fill="#6D6C6A" transform="translate(500,608)"/>
<path d="M0 0 C0 3.33156142 -0.45664761 5.06028115 -2 8 C-4.625 9.8125 -4.625 9.8125 -7 11 C-5.22054913 6.95579349 -2.60470327 3.53921513 0 0 Z " fill="#ACADAD" transform="translate(513,489)"/>
<path d="M0 0 C1.98 0.66 3.96 1.32 6 2 C6 2.66 6 3.32 6 4 C7.32 4.66 8.64 5.32 10 6 C10 6.99 10 7.98 10 9 C9.608125 8.566875 9.21625 8.13375 8.8125 7.6875 C6.99400704 5.8712924 6.99400704 5.8712924 4.4375 4.5 C2 3 2 3 0 0 Z " fill="#919191" transform="translate(508,674)"/>
<path d="M0 0 C-3.19990508 2.74277578 -6.00499382 4.6302836 -10 6 C-7.82304683 0.97626191 -5.41372848 -0.29263397 0 0 Z " fill="#6F6E6E" transform="translate(453,517)"/>
<path d="M0 0 C1.2065625 0.0309375 1.2065625 0.0309375 2.4375 0.0625 C-0.1859008 2.97738977 -3.28066394 4.94753898 -6.5625 7.0625 C-7.2225 6.7325 -7.8825 6.4025 -8.5625 6.0625 C-2.5625 0.0625 -2.5625 0.0625 0 0 Z " fill="#ADADAB" transform="translate(803.5625,384.9375)"/>
<path d="M0 0 C6.70909091 2.60909091 6.70909091 2.60909091 9 4 C9.33 4.99 9.66 5.98 10 7 C5.56541027 5.6062718 3.12621626 3.39417765 0 0 Z " fill="#949493" transform="translate(536,653)"/>
<path d="M0 0 C3.93846154 3.32307692 3.93846154 3.32307692 4.25 6.75 C4.1675 7.4925 4.085 8.235 4 9 C2.5 7.625 2.5 7.625 1 6 C1 5.34 1 4.68 1 4 C0.34 4 -0.32 4 -1 4 C-0.67 2.68 -0.34 1.36 0 0 Z " fill="#818180" transform="translate(348,567)"/>
<path d="M0 0 C1.32 0.66 2.64 1.32 4 2 C4 3.98 4 5.96 4 8 C3.34 8 2.68 8 2 8 C0.3125 5.6875 0.3125 5.6875 -1 3 C-0.67 2.01 -0.34 1.02 0 0 Z " fill="#848484" transform="translate(343,560)"/>
<path d="M0 0 C-0.33 0.66 -0.66 1.32 -1 2 C-2.99609375 2.44921875 -2.99609375 2.44921875 -5.4375 2.6875 C-6.24058594 2.77386719 -7.04367187 2.86023438 -7.87109375 2.94921875 C-10 3 -10 3 -12 2 C-2.48648649 -1.24324324 -2.48648649 -1.24324324 0 0 Z " fill="#8A8987" transform="translate(390,471)"/>
<path d="M0 0 C3 1 3 1 5 4 C0.05 3.67 -4.9 3.34 -10 3 C-10 2.67 -10 2.34 -10 2 C-6.7 1.67 -3.4 1.34 0 1 C0 0.67 0 0.34 0 0 Z " fill="#949392" transform="translate(378,361)"/>
<path d="M0 0 C-0.69867187 0.27714844 -1.39734375 0.55429687 -2.1171875 0.83984375 C-3.02726563 1.20207031 -3.93734375 1.56429688 -4.875 1.9375 C-5.77992188 2.29714844 -6.68484375 2.65679687 -7.6171875 3.02734375 C-9.96137667 3.94901262 -9.96137667 3.94901262 -12 5 C-12.66 4.34 -13.32 3.68 -14 3 C-4.13199301 -1.28234266 -4.13199301 -1.28234266 0 0 Z " fill="#CBCAC9" transform="translate(632,306)"/>
<path d="M0 0 C4.50884026 2.31883213 6.93906776 5.06451569 10 9 C6.41213553 7.34406255 3.16216412 5.37162309 0 3 C0 2.01 0 1.02 0 0 Z " fill="#F1F1F0" transform="translate(210,292)"/>
<path d="M0 0 C3.78383679 0.92493788 5.56693694 1.39371171 7.875 4.625 C8.431875 5.800625 8.431875 5.800625 9 7 C7.68 6.67 6.36 6.34 5 6 C5 5.34 5 4.68 5 4 C4.34 4 3.68 4 3 4 C3 3.34 3 2.68 3 2 C2.01 1.67 1.02 1.34 0 1 C0 0.67 0 0.34 0 0 Z " fill="#8D8D8D" transform="translate(441,703)"/>
<path d="M0 0 C1.8125 0.125 1.8125 0.125 4 1 C5.8125 3.9375 5.8125 3.9375 7 7 C6.67 7.66 6.34 8.32 6 9 C3.7522025 6.94766315 2.9977758 5.99332739 2 3 C1.34 2.67 0.68 2.34 0 2 C0 1.34 0 0.68 0 0 Z " fill="#969695" transform="translate(409,668)"/>
<path d="M0 0 C0.70125 0.268125 1.4025 0.53625 2.125 0.8125 C1.568125 1.080625 1.01125 1.34875 0.4375 1.625 C-1.97321537 2.81579541 -1.97321537 2.81579541 -4.5 4.5 C-5.28375 4.933125 -6.0675 5.36625 -6.875 5.8125 C-7.535 5.4825 -8.195 5.1525 -8.875 4.8125 C-3.58269231 -0.23365385 -3.58269231 -0.23365385 0 0 Z " fill="#878686" transform="translate(715.875,593.1875)"/>
<path d="M0 0 C0.99 0.66 1.98 1.32 3 2 C-2.2734375 5.22265625 -2.2734375 5.22265625 -4 6 C-4.66 5.67 -5.32 5.34 -6 5 C-4.06745228 2.9754262 -2.36841312 1.57894208 0 0 Z " fill="#707070" transform="translate(438,523)"/>
<path d="M0 0 C-0.33 0.66 -0.66 1.32 -1 2 C-5.465589 3.48852967 -9.44878513 2.69425312 -14 2 C-14 1.67 -14 1.34 -14 1 C-4.58997722 -0.14806378 -4.58997722 -0.14806378 0 0 Z " fill="#717171" transform="translate(377,474)"/>
<path d="M0 0 C1.50539661 0.94983358 3.00420347 1.91011891 4.5 2.875 C5.75296875 3.67550781 5.75296875 3.67550781 7.03125 4.4921875 C7.6809375 4.98976563 8.330625 5.48734375 9 6 C9 6.66 9 7.32 9 8 C5.56247993 6.4722133 2.81046312 4.49818944 0 2 C0 1.34 0 0.68 0 0 Z " fill="#F2F2F2" transform="translate(784,325)"/>
<path d="M0 0 C-1.45255699 3.82946843 -3.42895561 5.12050295 -7 7 C-6.61402985 4.20171644 -6.19863427 3.1794116 -4.0625 1.25 C-2 0 -2 0 0 0 Z " fill="#5A5B58" transform="translate(460,510)"/>
<path d="M0 0 C0.66 0.33 1.32 0.66 2 1 C1.50769231 6.53846154 1.50769231 6.53846154 -1.0625 8.875 C-2.0215625 9.431875 -2.0215625 9.431875 -3 10 C-2.69201674 8.51988629 -2.378482 7.04092675 -2.0625 5.5625 C-1.88847656 4.73878906 -1.71445313 3.91507812 -1.53515625 3.06640625 C-1 1 -1 1 0 0 Z " fill="#171716" transform="translate(255,481)"/>
<path d="M0 0 C2.99324263 1.0975223 3.84610901 1.67682892 5.25 4.625 C5.4975 5.40875 5.745 6.1925 6 7 C5.01 6.67 4.02 6.34 3 6 C3 5.34 3 4.68 3 4 C2.01 3.67 1.02 3.34 0 3 C0 2.01 0 1.02 0 0 Z " fill="#777676" transform="translate(739,390)"/>
<path d="M0 0 C0.66 0 1.32 0 2 0 C2 0.99 2 1.98 2 3 C2.66 3 3.32 3 4 3 C4.33 4.32 4.66 5.64 5 7 C1.535 5.02 1.535 5.02 -2 3 C-1.34 2.01 -0.68 1.02 0 0 Z " fill="#8C8C8B" transform="translate(490,341)"/>
<path d="M0 0 C0.66 0 1.32 0 2 0 C2.33 1.32 2.66 2.64 3 4 C3.66 4 4.32 4 5 4 C4.67 4.66 4.34 5.32 4 6 C2.0625 5.6875 2.0625 5.6875 0 5 C-0.33 4.01 -0.66 3.02 -1 2 C-0.67 1.34 -0.34 0.68 0 0 Z " fill="#767575" transform="translate(497,659)"/>
<path d="M0 0 C0.33 0 0.66 0 1 0 C1 3.63 1 7.26 1 11 C0.34 10.67 -0.32 10.34 -1 10 C-1.59355614 7.35139573 -1.74209269 4.70802678 -2 2 C-1.34 2 -0.68 2 0 2 C0 1.34 0 0.68 0 0 Z " fill="#75706F" transform="translate(485,567)"/>
<path d="M0 0 C0 0.66 0 1.32 0 2 C-2.90600261 3.25664978 -4.79604584 4 -8 4 C-8 3.34 -8 2.68 -8 2 C-5.09399739 0.74335022 -3.20395416 0 0 0 Z " fill="#424242" transform="translate(420,533)"/>
<path d="M0 0 C1.4606285 2.64738916 2 3.89448334 2 7 C1.67 7.66 1.34 8.32 1 9 C-0.625 6.75 -0.625 6.75 -2 4 C-1.1875 1.6875 -1.1875 1.6875 0 0 Z " fill="#8A8989" transform="translate(386,628)"/>
<path d="M0 0 C0.99 0 1.98 0 3 0 C3 0.99 3 1.98 3 3 C3.66 3.33 4.32 3.66 5 4 C4.67 5.32 4.34 6.64 4 8 C0 2.25 0 2.25 0 0 Z " fill="#858483" transform="translate(374,613)"/>
<path d="M0 0 C0.99 1.32 1.98 2.64 3 4 C2.34 5.32 1.68 6.64 1 8 C0.34 7.34 -0.32 6.68 -1 6 C-0.625 2.875 -0.625 2.875 0 0 Z " fill="#6D6E6D" transform="translate(530,449)"/>
<path d="M0 0 C0.99 0.33 1.98 0.66 3 1 C1.02 3.97 1.02 3.97 -1 7 C-1.66 6.67 -2.32 6.34 -3 6 C-2.67 4.68 -2.34 3.36 -2 2 C-1.34 2 -0.68 2 0 2 C0 1.34 0 0.68 0 0 Z " fill="#7E7E7D" transform="translate(602,408)"/>
<path d="M0 0 C2.31 0.33 4.62 0.66 7 1 C7 1.33 7 1.66 7 2 C2.545 2.495 2.545 2.495 -2 3 C-1.34 2.01 -0.68 1.02 0 0 Z " fill="#6C6969" transform="translate(660,373)"/>
<path d="M0 0 C5.75 1.875 5.75 1.875 8 3 C8 3.66 8 4.32 8 5 C2.25 3.125 2.25 3.125 0 2 C0 1.34 0 0.68 0 0 Z " fill="#1C1C1C" transform="translate(758,312)"/>
</svg>
